<svg width="300" height="400" viewBox="0 0 300 400" fill="none" xmlns="http://www.w3.org/2000/svg">
<rect width="300" height="400" rx="20" fill="white"/>
<path d="M14.488 42L28.12 8.688H31.384L44.968 42H40.072L28.888 13.824H30.568L19.288 42H14.488ZM20.968 34.464V30.528H38.488V34.464H20.968Z" fill="#191715"/>
<path d="M255.488 353L269.12 386.312H272.384L285.968 353H281.072L269.888 381.176H271.568L260.288 353H255.488ZM261.968 360.536V364.472H279.488V360.536H261.968Z" fill="#191715"/>
<path d="M171.307 188.371C168.718 188.371 166.236 188.835 163.94 189.681C168.629 185.772 171.613 179.889 171.613 173.308C171.613 161.538 162.075 152 150.307 152C138.54 152 128.998 161.538 128.998 173.308C128.998 179.889 131.984 185.771 136.673 189.679C134.378 188.835 131.896 188.371 129.308 188.371C117.54 188.371 108 197.911 108 209.679C108 221.447 117.54 230.987 129.308 230.987C136.857 230.987 143.47 227.049 147.254 221.128C146.374 230.099 143.945 242.075 137.428 248C150.307 248 150.307 248 150.307 248C150.307 248 150.307 248 163.187 248C156.669 242.075 154.24 230.099 153.361 221.128C157.145 227.049 163.758 230.987 171.307 230.987C183.075 230.987 192.613 221.447 192.613 209.679C192.614 197.911 183.075 188.371 171.307 188.371Z" fill="#191715"/>
<path d="M39.6754 71.049C38.4614 71.049 37.2979 71.2662 36.2217 71.6629C38.4196 69.8309 39.8187 67.073 39.8187 63.988C39.8187 58.4709 35.3478 54 29.8314 54C24.3157 54 19.8427 58.4709 19.8427 63.988C19.8427 67.073 21.2425 69.8302 23.4404 71.6622C22.3646 71.2662 21.2015 71.049 19.9882 71.049C14.4719 71.049 10 75.5206 10 81.037C10 86.5534 14.4719 91.0251 19.9882 91.0251C23.5268 91.0251 26.6264 89.179 28.4003 86.4038C27.9879 90.6087 26.8494 96.2227 23.7943 99C29.8314 99 29.8314 99 29.8314 99C29.8314 99 29.8314 99 35.8691 99C32.8137 96.2227 31.6752 90.6087 31.2632 86.4038C33.0368 89.179 36.1367 91.0251 39.6753 91.0251C45.1913 91.0251 49.6626 86.5534 49.6626 81.037C49.6627 75.5206 45.1914 71.049 39.6754 71.049Z" fill="#191715"/>
<path d="M280.675 323.951C279.461 323.951 278.298 323.734 277.222 323.337C279.42 325.169 280.819 327.927 280.819 331.012C280.819 336.529 276.348 341 270.831 341C265.316 341 260.843 336.529 260.843 331.012C260.843 327.927 262.243 325.17 264.44 323.338C263.365 323.734 262.201 323.951 260.988 323.951C255.472 323.951 251 319.479 251 313.963C251 308.447 255.472 303.975 260.988 303.975C264.527 303.975 267.626 305.821 269.4 308.596C268.988 304.391 267.849 298.777 264.794 296C270.831 296 270.831 296 270.831 296C270.831 296 270.831 296 276.869 296C273.814 298.777 272.675 304.391 272.263 308.596C274.037 305.821 277.137 303.975 280.675 303.975C286.191 303.975 290.663 308.447 290.663 313.963C290.663 319.479 286.191 323.951 280.675 323.951Z" fill="#191715"/>
</svg>
