<svg width="300" height="400" viewBox="0 0 300 400" fill="none" xmlns="http://www.w3.org/2000/svg">
<rect width="300" height="400" rx="20" fill="white"/>
<path d="M14.488 42L28.12 8.688H31.384L44.968 42H40.072L28.888 13.824H30.568L19.288 42H14.488ZM20.968 34.464V30.528H38.488V34.464H20.968Z" fill="#F99B1F"/>
<path d="M255.488 353L269.12 386.312H272.384L285.968 353H281.072L269.888 381.176H271.568L260.288 353H255.488ZM261.968 360.536V364.472H279.488V360.536H261.968Z" fill="#F99B1F"/>
<path d="M150.478 152L116 200L150.478 248L184.957 200L150.478 152Z" fill="#F99B1F"/>
<path d="M30.5 51L14 73.9709L30.5 96.9417L47 73.9709L30.5 51Z" fill="#F99B1F"/>
<path d="M271.5 294L255 316.971L271.5 339.942L288 316.971L271.5 294Z" fill="#F99B1F"/>
</svg>
