<svg width="300" height="400" viewBox="0 0 300 400" fill="none" xmlns="http://www.w3.org/2000/svg">
<rect width="300" height="400" rx="20" fill="white"/>
<path d="M147.766 63.6137L128.452 39.8557C126.912 37.9606 125.885 35.7574 125.371 33.246C124.87 30.7346 124.876 28.2387 125.39 25.7581C125.903 23.2621 126.924 21.0897 128.452 19.2408C130.018 17.3457 131.803 16.0901 133.807 15.4738C135.823 14.8421 137.834 14.8421 139.838 15.4738C141.854 16.1055 143.645 17.3612 145.211 19.2408L147.766 22.2915L150.321 19.2408C151.9 17.3612 153.691 16.1055 155.695 15.4738C157.699 14.8421 159.703 14.8421 161.707 15.4738C163.723 16.0901 165.515 17.3457 167.08 19.2408C168.608 21.0897 169.629 23.2621 170.143 25.7581C170.656 28.2387 170.656 30.7346 170.143 33.246C169.642 35.7574 168.621 37.9606 167.08 39.8557L147.766 63.6137Z" fill="#F99B1F"/>
<path d="M148.766 331.386L129.452 355.144C127.912 357.039 126.885 359.243 126.371 361.754C125.87 364.265 125.876 366.761 126.39 369.242C126.903 371.738 127.924 373.91 129.452 375.759C131.018 377.654 132.803 378.91 134.807 379.526C136.823 380.158 138.834 380.158 140.838 379.526C142.854 378.895 144.645 377.639 146.211 375.759L148.766 372.709L151.321 375.759C152.9 377.639 154.691 378.895 156.695 379.526C158.699 380.158 160.703 380.158 162.707 379.526C164.723 378.91 166.515 377.654 168.08 375.759C169.608 373.91 170.629 371.738 171.143 369.242C171.656 366.761 171.656 364.265 171.143 361.754C170.642 359.243 169.621 357.039 168.08 355.144L148.766 331.386Z" fill="#F99B1F"/>
<path d="M30.0021 85L13.0332 67.8952C11.6796 66.5308 10.7772 64.9445 10.3261 63.1364C9.88588 61.3283 9.89138 59.5313 10.3426 57.7454C10.7937 55.9484 11.6906 54.3844 13.0332 53.0532C14.4087 51.6889 15.9769 50.7848 17.7376 50.3411C19.5093 49.8863 21.2755 49.8863 23.0362 50.3411C24.808 50.7959 26.3816 51.6999 27.7572 53.0532L30.0021 55.2496L32.247 53.0532C33.6336 51.6999 35.2072 50.7959 36.9679 50.3411C38.7286 49.8863 40.4894 49.8863 42.2501 50.3411C44.0218 50.7848 45.5955 51.6889 46.971 53.0532C48.3136 54.3844 49.2104 55.9484 49.6616 57.7454C50.1128 59.5313 50.1128 61.3283 49.6616 63.1364C49.2214 64.9445 48.3246 66.5308 46.971 67.8952L30.0021 85Z" fill="#F99B1F"/>
<path d="M18.584 39.264L30.872 26.304C32.12 25.024 33.096 23.92 33.8 22.992C34.504 22.032 35 21.152 35.288 20.352C35.608 19.552 35.768 18.72 35.768 17.856C35.768 16.16 35.224 14.832 34.136 13.872C33.048 12.912 31.64 12.432 29.912 12.432C28.216 12.432 26.728 12.848 25.448 13.68C24.168 14.48 23.032 15.728 22.04 17.424L18.872 14.784C20.184 12.608 21.768 10.976 23.624 9.888C25.48 8.768 27.624 8.208 30.056 8.208C32.104 8.208 33.88 8.608 35.384 9.408C36.92 10.208 38.104 11.328 38.936 12.768C39.768 14.208 40.184 15.888 40.184 17.808C40.184 19.184 40.008 20.416 39.656 21.504C39.336 22.592 38.744 23.712 37.88 24.864C37.048 25.984 35.88 27.328 34.376 28.896L24.44 39.12L18.584 39.264ZM18.584 42V39.264L22.424 37.968H40.952V42H18.584Z" fill="#F99B1F"/>
<path d="M271.002 310L254.033 327.105C252.68 328.469 251.777 330.055 251.326 331.864C250.886 333.672 250.891 335.469 251.343 337.255C251.794 339.052 252.691 340.616 254.033 341.947C255.409 343.311 256.977 344.215 258.738 344.659C260.509 345.114 262.276 345.114 264.036 344.659C265.808 344.204 267.382 343.3 268.757 341.947L271.002 339.75L273.247 341.947C274.634 343.3 276.207 344.204 277.968 344.659C279.729 345.114 281.489 345.114 283.25 344.659C285.022 344.215 286.595 343.311 287.971 341.947C289.314 340.616 290.21 339.052 290.662 337.255C291.113 335.469 291.113 333.672 290.662 331.864C290.221 330.055 289.325 328.469 287.971 327.105L271.002 310Z" fill="#F99B1F"/>
<path d="M259.584 355.736L271.872 368.696C273.12 369.976 274.096 371.08 274.8 372.008C275.504 372.968 276 373.848 276.288 374.648C276.608 375.448 276.768 376.28 276.768 377.144C276.768 378.84 276.224 380.168 275.136 381.128C274.048 382.088 272.64 382.568 270.912 382.568C269.216 382.568 267.728 382.152 266.448 381.32C265.168 380.52 264.032 379.272 263.04 377.576L259.872 380.216C261.184 382.392 262.768 384.024 264.624 385.112C266.48 386.232 268.624 386.792 271.056 386.792C273.104 386.792 274.88 386.392 276.384 385.592C277.92 384.792 279.104 383.672 279.936 382.232C280.768 380.792 281.184 379.112 281.184 377.192C281.184 375.816 281.008 374.584 280.656 373.496C280.336 372.408 279.744 371.288 278.88 370.136C278.048 369.016 276.88 367.672 275.376 366.104L265.44 355.88L259.584 355.736ZM259.584 353V355.736L263.424 357.032H281.952V353H259.584Z" fill="#F99B1F"/>
</svg>
