<svg width="300" height="400" viewBox="0 0 300 400" fill="none" xmlns="http://www.w3.org/2000/svg">
<rect width="300" height="400" rx="20" fill="white"/>
<path d="M150.08 247.614L103.352 200.886C99.6251 197.159 97.1403 192.826 95.8979 187.886C94.6857 182.947 94.7009 178.038 95.9433 173.159C97.1857 168.25 99.6554 163.977 103.352 160.341C107.14 156.614 111.458 154.144 116.307 152.932C121.186 151.689 126.049 151.689 130.898 152.932C135.777 154.174 140.11 156.644 143.898 160.341L150.08 166.341L156.262 160.341C160.08 156.644 164.413 154.174 169.262 152.932C174.11 151.689 178.958 151.689 183.807 152.932C188.686 154.144 193.019 156.614 196.807 160.341C200.504 163.977 202.974 168.25 204.216 173.159C205.458 178.038 205.458 182.947 204.216 187.886C203.004 192.826 200.534 197.159 196.807 200.886L150.08 247.614Z" fill="#F99B1F"/>
<path d="M30.0021 89L13.0332 71.8952C11.6796 70.5308 10.7772 68.9445 10.3261 67.1364C9.88588 65.3283 9.89138 63.5313 10.3426 61.7454C10.7937 59.9484 11.6906 58.3844 13.0332 57.0532C14.4087 55.6889 15.9769 54.7848 17.7376 54.3411C19.5093 53.8863 21.2755 53.8863 23.0362 54.3411C24.808 54.7959 26.3816 55.6999 27.7572 57.0532L30.0021 59.2496L32.247 57.0532C33.6336 55.6999 35.2072 54.7959 36.9679 54.3411C38.7286 53.8863 40.4894 53.8863 42.2501 54.3411C44.0218 54.7848 45.5955 55.6889 46.971 57.0532C48.3136 58.3844 49.2104 59.9484 49.6616 61.7454C50.1128 63.5313 50.1128 65.3283 49.6616 67.1364C49.2214 68.9445 48.3246 70.5308 46.971 71.8952L30.0021 89Z" fill="#F99B1F"/>
<path d="M271.002 345L254.033 327.895C252.68 326.531 251.777 324.945 251.326 323.136C250.886 321.328 250.891 319.531 251.343 317.745C251.794 315.948 252.691 314.384 254.033 313.053C255.409 311.689 256.977 310.785 258.738 310.341C260.509 309.886 262.276 309.886 264.036 310.341C265.808 310.796 267.382 311.7 268.757 313.053L271.002 315.25L273.247 313.053C274.634 311.7 276.207 310.796 277.968 310.341C279.729 309.886 281.489 309.886 283.25 310.341C285.022 310.785 286.595 311.689 287.971 313.053C289.314 314.384 290.21 315.948 290.662 317.745C291.113 319.531 291.113 321.328 290.662 323.136C290.221 324.945 289.325 326.531 287.971 327.895L271.002 345Z" fill="#F99B1F"/>
<path d="M14.488 42L28.12 8.688H31.384L44.968 42H40.072L28.888 13.824H30.568L19.288 42H14.488ZM20.968 34.464V30.528H38.488V34.464H20.968Z" fill="#F99B1F"/>
<path d="M255.488 389L269.12 355.688H272.384L285.968 389H281.072L269.888 360.824H271.568L260.288 389H255.488ZM261.968 381.464V377.528H279.488V381.464H261.968Z" fill="#F99B1F"/>
</svg>
