<svg width="300" height="400" viewBox="0 0 300 400" fill="none" xmlns="http://www.w3.org/2000/svg">
<rect width="300" height="400" rx="20" fill="white"/>
<path d="M147.766 63.6137L128.452 39.8557C126.912 37.9606 125.885 35.7574 125.371 33.246C124.87 30.7346 124.876 28.2387 125.39 25.7581C125.903 23.2621 126.924 21.0897 128.452 19.2408C130.018 17.3457 131.803 16.0901 133.807 15.4738C135.823 14.8421 137.834 14.8421 139.838 15.4738C141.854 16.1055 143.645 17.3612 145.211 19.2408L147.766 22.2915L150.321 19.2408C151.9 17.3612 153.691 16.1055 155.695 15.4738C157.699 14.8421 159.703 14.8421 161.707 15.4738C163.723 16.0901 165.515 17.3457 167.08 19.2408C168.608 21.0897 169.629 23.2621 170.143 25.7581C170.656 28.2387 170.656 30.7346 170.143 33.246C169.642 35.7574 168.621 37.9606 167.08 39.8557L147.766 63.6137Z" fill="#F99B1F"/>
<path d="M149.766 224.614L130.452 200.856C128.912 198.961 127.885 196.757 127.371 194.246C126.87 191.735 126.876 189.239 127.39 186.758C127.903 184.262 128.924 182.09 130.452 180.241C132.018 178.346 133.803 177.09 135.807 176.474C137.823 175.842 139.834 175.842 141.838 176.474C143.854 177.105 145.645 178.361 147.211 180.241L149.766 183.291L152.321 180.241C153.9 178.361 155.691 177.105 157.695 176.474C159.699 175.842 161.703 175.842 163.707 176.474C165.723 177.09 167.515 178.346 169.08 180.241C170.608 182.09 171.629 184.262 172.143 186.758C172.656 189.239 172.656 191.735 172.143 194.246C171.642 196.757 170.621 198.961 169.08 200.856L149.766 224.614Z" fill="#F99B1F"/>
<path d="M148.766 331.386L129.452 355.144C127.912 357.039 126.885 359.243 126.371 361.754C125.87 364.265 125.876 366.761 126.39 369.242C126.903 371.738 127.924 373.91 129.452 375.759C131.018 377.654 132.803 378.91 134.807 379.526C136.823 380.158 138.834 380.158 140.838 379.526C142.854 378.895 144.645 377.639 146.211 375.759L148.766 372.709L151.321 375.759C152.9 377.639 154.691 378.895 156.695 379.526C158.699 380.158 160.703 380.158 162.707 379.526C164.723 378.91 166.515 377.654 168.08 375.759C169.608 373.91 170.629 371.738 171.143 369.242C171.656 366.761 171.656 364.265 171.143 361.754C170.642 359.243 169.621 357.039 168.08 355.144L148.766 331.386Z" fill="#F99B1F"/>
<path d="M30.0021 85L13.0332 67.8952C11.6796 66.5308 10.7772 64.9445 10.3261 63.1364C9.88588 61.3283 9.89138 59.5313 10.3426 57.7454C10.7937 55.9484 11.6906 54.3844 13.0332 53.0532C14.4087 51.6889 15.9769 50.7848 17.7376 50.3411C19.5093 49.8863 21.2755 49.8863 23.0362 50.3411C24.808 50.7959 26.3816 51.6999 27.7572 53.0532L30.0021 55.2496L32.247 53.0532C33.6336 51.6999 35.2072 50.7959 36.9679 50.3411C38.7286 49.8863 40.4894 49.8863 42.2501 50.3411C44.0218 50.7848 45.5955 51.6889 46.971 53.0532C48.3136 54.3844 49.2104 55.9484 49.6616 57.7454C50.1128 59.5313 50.1128 61.3283 49.6616 63.1364C49.2214 64.9445 48.3246 66.5308 46.971 67.8952L30.0021 85Z" fill="#F99B1F"/>
<path d="M28.856 42.48C26.68 42.48 24.696 42.08 22.904 41.28C21.144 40.448 19.656 39.248 18.44 37.68L21.512 34.608C22.248 35.728 23.256 36.624 24.536 37.296C25.816 37.936 27.24 38.256 28.808 38.256C30.28 38.256 31.544 37.984 32.6 37.44C33.688 36.864 34.536 36.064 35.144 35.04C35.784 34.016 36.104 32.832 36.104 31.488C36.104 30.112 35.784 28.928 35.144 27.936C34.536 26.912 33.672 26.128 32.552 25.584C31.432 25.04 30.104 24.768 28.568 24.768C27.992 24.768 27.416 24.816 26.84 24.912C26.264 24.976 25.704 25.088 25.16 25.248L27.08 22.656C27.688 22.368 28.344 22.144 29.048 21.984C29.752 21.824 30.456 21.744 31.16 21.744C32.952 21.744 34.552 22.16 35.96 22.992C37.4 23.824 38.536 24.992 39.368 26.496C40.232 28 40.664 29.744 40.664 31.728C40.664 33.84 40.152 35.712 39.128 37.344C38.136 38.944 36.76 40.208 35 41.136C33.24 42.032 31.192 42.48 28.856 42.48ZM25.16 25.248V22.512L34.904 11.424L40.28 11.376L30.248 22.752L25.16 25.248ZM20.024 12.72V8.688H40.28V11.376L36.344 12.72H20.024Z" fill="#F99B1F"/>
<path d="M271.002 310L254.033 327.105C252.68 328.469 251.777 330.055 251.326 331.864C250.886 333.672 250.891 335.469 251.343 337.255C251.794 339.052 252.691 340.616 254.033 341.947C255.409 343.311 256.977 344.215 258.738 344.659C260.509 345.114 262.276 345.114 264.036 344.659C265.808 344.204 267.382 343.3 268.757 341.947L271.002 339.75L273.247 341.947C274.634 343.3 276.207 344.204 277.968 344.659C279.729 345.114 281.489 345.114 283.25 344.659C285.022 344.215 286.595 343.311 287.971 341.947C289.314 340.616 290.21 339.052 290.662 337.255C291.113 335.469 291.113 333.672 290.662 331.864C290.221 330.055 289.325 328.469 287.971 327.105L271.002 310Z" fill="#F99B1F"/>
<path d="M269.856 352.52C267.68 352.52 265.696 352.92 263.904 353.72C262.144 354.552 260.656 355.752 259.44 357.32L262.512 360.392C263.248 359.272 264.256 358.376 265.536 357.704C266.816 357.064 268.24 356.744 269.808 356.744C271.28 356.744 272.544 357.016 273.6 357.56C274.688 358.136 275.536 358.936 276.144 359.96C276.784 360.984 277.104 362.168 277.104 363.512C277.104 364.888 276.784 366.072 276.144 367.064C275.536 368.088 274.672 368.872 273.552 369.416C272.432 369.96 271.104 370.232 269.568 370.232C268.992 370.232 268.416 370.184 267.84 370.088C267.264 370.024 266.704 369.912 266.16 369.752L268.08 372.344C268.688 372.632 269.344 372.856 270.048 373.016C270.752 373.176 271.456 373.256 272.16 373.256C273.952 373.256 275.552 372.84 276.96 372.008C278.4 371.176 279.536 370.008 280.368 368.504C281.232 367 281.664 365.256 281.664 363.272C281.664 361.16 281.152 359.288 280.128 357.656C279.136 356.056 277.76 354.792 276 353.864C274.24 352.968 272.192 352.52 269.856 352.52ZM266.16 369.752V372.488L275.904 383.576L281.28 383.624L271.248 372.248L266.16 369.752ZM261.024 382.28V386.312H281.28V383.624L277.344 382.28H261.024Z" fill="#F99B1F"/>
</svg>
