<svg width="301" height="400" viewBox="0 0 301 400" fill="none" xmlns="http://www.w3.org/2000/svg">
<rect width="300" height="400" rx="20" fill="white"/>
<path d="M91.7663 63.6137L72.4523 39.8557C70.9117 37.9606 69.8847 35.7574 69.3711 33.246C68.8701 30.7346 68.8764 28.2387 69.3899 25.7581C69.9034 23.2621 70.9243 21.0897 72.4523 19.2408C74.018 17.3457 75.8028 16.0901 77.8069 15.4738C79.8234 14.8421 81.8338 14.8421 83.8378 15.4738C85.8544 16.1055 87.6455 17.3612 89.2111 19.2408L91.7663 22.2915L94.3214 19.2408C95.8996 17.3612 97.6907 16.1055 99.6948 15.4738C101.699 14.8421 103.703 14.8421 105.707 15.4738C107.723 16.0901 109.515 17.3457 111.08 19.2408C112.608 21.0897 113.629 23.2621 114.143 25.7581C114.656 28.2387 114.656 30.7346 114.143 33.246C113.642 35.7574 112.621 37.9606 111.08 39.8557L91.7663 63.6137Z" fill="#F99B1F"/>
<path d="M149.766 224.614L130.452 200.856C128.912 198.961 127.885 196.757 127.371 194.246C126.87 191.735 126.876 189.239 127.39 186.758C127.903 184.262 128.924 182.09 130.452 180.241C132.018 178.346 133.803 177.09 135.807 176.474C137.823 175.842 139.834 175.842 141.838 176.474C143.854 177.105 145.645 178.361 147.211 180.241L149.766 183.291L152.321 180.241C153.9 178.361 155.691 177.105 157.695 176.474C159.699 175.842 161.703 175.842 163.707 176.474C165.723 177.09 167.515 178.346 169.08 180.241C170.608 182.09 171.629 184.262 172.143 186.758C172.656 189.239 172.656 191.735 172.143 194.246C171.642 196.757 170.621 198.961 169.08 200.856L149.766 224.614Z" fill="#F99B1F"/>
<path d="M210.766 62.6137L191.452 38.8557C189.912 36.9606 188.885 34.7574 188.371 32.246C187.87 29.7346 187.876 27.2387 188.39 24.7581C188.903 22.2621 189.924 20.0897 191.452 18.2408C193.018 16.3457 194.803 15.0901 196.807 14.4738C198.823 13.8421 200.834 13.8421 202.838 14.4738C204.854 15.1055 206.645 16.3612 208.211 18.2408L210.766 21.2915L213.321 18.2408C214.9 16.3612 216.691 15.1055 218.695 14.4738C220.699 13.8421 222.703 13.8421 224.707 14.4738C226.723 15.0901 228.515 16.3457 230.08 18.2408C231.608 20.0897 232.629 22.2621 233.143 24.7581C233.656 27.2387 233.656 29.7346 233.143 32.246C232.642 34.7574 231.621 36.9606 230.08 38.8557L210.766 62.6137Z" fill="#F99B1F"/>
<path d="M89.7663 331.386L70.4523 355.144C68.9117 357.039 67.8847 359.243 67.3711 361.754C66.8701 364.265 66.8764 366.761 67.3899 369.242C67.9034 371.738 68.9243 373.91 70.4523 375.759C72.018 377.654 73.8028 378.91 75.8069 379.526C77.8234 380.158 79.8338 380.158 81.8378 379.526C83.8544 378.895 85.6455 377.639 87.2111 375.759L89.7663 372.709L92.3214 375.759C93.8996 377.639 95.6907 378.895 97.6948 379.526C99.6988 380.158 101.703 380.158 103.707 379.526C105.723 378.91 107.515 377.654 109.08 375.759C110.608 373.91 111.629 371.738 112.143 369.242C112.656 366.761 112.656 364.265 112.143 361.754C111.642 359.243 110.621 357.039 109.08 355.144L89.7663 331.386Z" fill="#F99B1F"/>
<path d="M210.766 331.386L191.452 355.144C189.912 357.039 188.885 359.243 188.371 361.754C187.87 364.265 187.876 366.761 188.39 369.242C188.903 371.738 189.924 373.91 191.452 375.759C193.018 377.654 194.803 378.91 196.807 379.526C198.823 380.158 200.834 380.158 202.838 379.526C204.854 378.895 206.645 377.639 208.211 375.759L210.766 372.709L213.321 375.759C214.9 377.639 216.691 378.895 218.695 379.526C220.699 380.158 222.703 380.158 224.707 379.526C226.723 378.91 228.515 377.654 230.08 375.759C231.608 373.91 232.629 371.738 233.143 369.242C233.656 366.761 233.656 364.265 233.143 361.754C232.642 359.243 231.621 357.039 230.08 355.144L210.766 331.386Z" fill="#F99B1F"/>
<path d="M31.0021 85L14.0332 67.8952C12.6796 66.5308 11.7772 64.9445 11.3261 63.1364C10.8859 61.3283 10.8914 59.5313 11.3426 57.7454C11.7937 55.9484 12.6906 54.3844 14.0332 53.0532C15.4087 51.6889 16.9769 50.7848 18.7376 50.3411C20.5093 49.8863 22.2755 49.8863 24.0362 50.3411C25.808 50.7959 27.3816 51.6999 28.7572 53.0532L31.0021 55.2496L33.247 53.0532C34.6336 51.6999 36.2072 50.7959 37.9679 50.3411C39.7286 49.8863 41.4894 49.8863 43.2501 50.3411C45.0218 50.7848 46.5955 51.6889 47.971 53.0532C49.3136 54.3844 50.2104 55.9484 50.6616 57.7454C51.1128 59.5313 51.1128 61.3283 50.6616 63.1364C50.2214 64.9445 49.3246 66.5308 47.971 67.8952L31.0021 85Z" fill="#F99B1F"/>
<path d="M29.904 42.48C27.632 42.48 25.6 42.08 23.808 41.28C22.048 40.448 20.56 39.248 19.344 37.68L22.416 34.608C23.152 35.728 24.16 36.624 25.44 37.296C26.752 37.936 28.208 38.256 29.808 38.256C31.312 38.256 32.624 37.968 33.744 37.392C34.896 36.816 35.792 36.016 36.432 34.992C37.104 33.936 37.44 32.688 37.44 31.248C37.44 29.776 37.12 28.528 36.48 27.504C35.84 26.48 34.976 25.712 33.888 25.2C32.832 24.656 31.664 24.384 30.384 24.384C29.072 24.384 27.872 24.544 26.784 24.864C25.728 25.184 24.72 25.728 23.76 26.496L23.808 23.616C24.352 22.944 24.976 22.4 25.68 21.984C26.384 21.568 27.184 21.248 28.08 21.024C28.976 20.8 30.016 20.688 31.2 20.688C33.504 20.688 35.456 21.168 37.056 22.128C38.656 23.088 39.872 24.384 40.704 26.016C41.568 27.648 42 29.472 42 31.488C42 33.6 41.472 35.488 40.416 37.152C39.392 38.816 37.968 40.128 36.144 41.088C34.32 42.016 32.24 42.48 29.904 42.48ZM23.76 26.496L21.312 24.048L22.8 8.688H26.928L25.248 24.48L23.76 26.496ZM23.712 12.72L22.8 8.688H40.32V12.72H23.712Z" fill="#F99B1F"/>
<path d="M272.002 310L255.033 327.105C253.68 328.469 252.777 330.055 252.326 331.864C251.886 333.672 251.891 335.469 252.343 337.255C252.794 339.052 253.691 340.616 255.033 341.947C256.409 343.311 257.977 344.215 259.738 344.659C261.509 345.114 263.276 345.114 265.036 344.659C266.808 344.204 268.382 343.3 269.757 341.947L272.002 339.75L274.247 341.947C275.634 343.3 277.207 344.204 278.968 344.659C280.729 345.114 282.489 345.114 284.25 344.659C286.022 344.215 287.595 343.311 288.971 341.947C290.314 340.616 291.21 339.052 291.662 337.255C292.113 335.469 292.113 333.672 291.662 331.864C291.221 330.055 290.325 328.469 288.971 327.105L272.002 310Z" fill="#F99B1F"/>
<path d="M270.904 352.52C268.632 352.52 266.6 352.92 264.808 353.72C263.048 354.552 261.56 355.752 260.344 357.32L263.416 360.392C264.152 359.272 265.16 358.376 266.44 357.704C267.752 357.064 269.208 356.744 270.808 356.744C272.312 356.744 273.624 357.032 274.744 357.608C275.896 358.184 276.792 358.984 277.432 360.008C278.104 361.064 278.44 362.312 278.44 363.752C278.44 365.224 278.12 366.472 277.48 367.496C276.84 368.52 275.976 369.288 274.888 369.8C273.832 370.344 272.664 370.616 271.384 370.616C270.072 370.616 268.872 370.456 267.784 370.136C266.728 369.816 265.72 369.272 264.76 368.504L264.808 371.384C265.352 372.056 265.976 372.6 266.68 373.016C267.384 373.432 268.184 373.752 269.08 373.976C269.976 374.2 271.016 374.312 272.2 374.312C274.504 374.312 276.456 373.832 278.056 372.872C279.656 371.912 280.872 370.616 281.704 368.984C282.568 367.352 283 365.528 283 363.512C283 361.4 282.472 359.512 281.416 357.848C280.392 356.184 278.968 354.872 277.144 353.912C275.32 352.984 273.24 352.52 270.904 352.52ZM264.76 368.504L262.312 370.952L263.8 386.312H267.928L266.248 370.52L264.76 368.504ZM264.712 382.28L263.8 386.312H281.32V382.28H264.712Z" fill="#F99B1F"/>
</svg>
