<svg class="card-svg" width="300" height="400" viewBox="0 0 300 400" fill="none" xmlns="http://www.w3.org/2000/svg">
<rect width="300" height="400" rx="20" fill="white"/>
<path d="M163.337 55.8421C159.085 57.4253 154.965 56.9514 150.931 55.0537C150.551 54.8752 150.207 54.5968 149.593 54.567C151.108 58.5983 152.034 62.7231 155.149 66H139.932C141.238 64.1639 142.51 62.4936 143.243 60.513C143.975 58.5324 144.663 56.6007 145.397 54.5585C144.762 54.6202 144.431 54.8794 144.08 55.0452C140.978 56.4796 137.773 57.1681 134.346 56.5752C129.45 55.7294 125.875 52.7607 125.124 48.06C124.792 46.0008 125.155 44.0287 125.877 42.1055C127.327 38.2145 129.842 35.0991 132.837 32.3152C137.42 28.0332 141.508 23.3346 145.083 18.245L145.271 17.9645C145.95 16.9912 147.444 15 147.444 15L148.776 16.8573C150.753 19.9621 153.201 22.8777 155.582 25.6361C157.909 28.3328 160.501 30.8404 163.122 33.2906C166.18 36.1468 168.488 39.5448 169.598 43.6504C171.046 48.995 168.495 53.9231 163.337 55.8421Z" fill="#191715"/>
<path d="M165.337 216.842C161.085 218.425 156.965 217.951 152.931 216.054C152.551 215.875 152.207 215.597 151.593 215.567C153.108 219.598 154.034 223.723 157.149 227H141.932C143.238 225.164 144.51 223.494 145.243 221.513C145.975 219.532 146.663 217.601 147.397 215.559C146.762 215.62 146.431 215.879 146.08 216.045C142.978 217.48 139.773 218.168 136.346 217.575C131.45 216.729 127.875 213.761 127.124 209.06C126.792 207.001 127.155 205.029 127.877 203.106C129.327 199.214 131.842 196.099 134.837 193.315C139.42 189.033 143.508 184.335 147.083 179.245L147.271 178.965C147.95 177.991 149.444 176 149.444 176L150.776 177.857C152.753 180.962 155.201 183.878 157.582 186.636C159.909 189.333 162.501 191.84 165.122 194.291C168.18 197.147 170.488 200.545 171.598 204.65C173.046 209.995 170.495 214.923 165.337 216.842Z" fill="#191715"/>
<path d="M164.337 341.158C160.085 339.575 155.965 340.049 151.931 341.946C151.551 342.125 151.207 342.403 150.593 342.433C152.108 338.402 153.034 334.277 156.149 331H140.932C142.238 332.836 143.51 334.506 144.243 336.487C144.975 338.468 145.663 340.399 146.397 342.441C145.762 342.38 145.431 342.121 145.08 341.955C141.978 340.52 138.773 339.832 135.346 340.425C130.45 341.271 126.875 344.239 126.124 348.94C125.792 350.999 126.155 352.971 126.877 354.894C128.327 358.786 130.842 361.901 133.837 364.685C138.42 368.967 142.508 373.665 146.083 378.755L146.271 379.035C146.95 380.009 148.444 382 148.444 382L149.776 380.143C151.753 377.038 154.201 374.122 156.582 371.364C158.909 368.667 161.501 366.16 164.122 363.709C167.18 360.853 169.488 357.455 170.598 353.35C172.046 348.005 169.495 343.077 164.337 341.158Z" fill="#191715"/>
<path d="M28.856 42.48C26.68 42.48 24.696 42.08 22.904 41.28C21.144 40.448 19.656 39.248 18.44 37.68L21.512 34.608C22.248 35.728 23.256 36.624 24.536 37.296C25.816 37.936 27.24 38.256 28.808 38.256C30.28 38.256 31.544 37.984 32.6 37.44C33.688 36.864 34.536 36.064 35.144 35.04C35.784 34.016 36.104 32.832 36.104 31.488C36.104 30.112 35.784 28.928 35.144 27.936C34.536 26.912 33.672 26.128 32.552 25.584C31.432 25.04 30.104 24.768 28.568 24.768C27.992 24.768 27.416 24.816 26.84 24.912C26.264 24.976 25.704 25.088 25.16 25.248L27.08 22.656C27.688 22.368 28.344 22.144 29.048 21.984C29.752 21.824 30.456 21.744 31.16 21.744C32.952 21.744 34.552 22.16 35.96 22.992C37.4 23.824 38.536 24.992 39.368 26.496C40.232 28 40.664 29.744 40.664 31.728C40.664 33.84 40.152 35.712 39.128 37.344C38.136 38.944 36.76 40.208 35 41.136C33.24 42.032 31.192 42.48 28.856 42.48ZM25.16 25.248V22.512L34.904 11.424L40.28 11.376L30.248 22.752L25.16 25.248ZM20.024 12.72V8.688H40.28V11.376L36.344 12.72H20.024Z" fill="#191715"/>
<path d="M44.0773 86.0371C40.2975 87.4341 36.6359 87.0159 33.0493 85.3415C32.7117 85.184 32.4059 84.9383 31.8601 84.9121C33.2069 88.4691 34.0304 92.1086 36.7991 95H23.2725C24.4337 93.3799 25.5648 91.9061 26.2157 90.1585C26.8666 88.411 27.4781 86.7065 28.1309 84.9046C27.5663 84.959 27.2718 85.1877 26.9604 85.334C24.2029 86.5997 21.3536 87.2072 18.3072 86.684C13.9553 85.9377 10.7776 83.3183 10.1099 79.1706C9.81535 77.3536 10.138 75.6136 10.7795 73.9166C12.0682 70.4834 14.3042 67.7345 16.966 65.2781C21.0403 61.4999 24.6738 57.3541 27.8514 52.8632L28.0184 52.6157C28.6224 51.7569 29.9505 50 29.9505 50L31.1341 51.6388C32.8918 54.3783 35.0677 56.9509 37.1837 59.3848C39.2527 61.7642 41.5562 63.9768 43.886 66.1388C46.6041 68.6589 48.6562 71.6572 49.6429 75.2798C50.9297 79.9956 48.6619 84.3439 44.0773 86.0371Z" fill="#191715"/>
<path d="M269.856 352.52C267.68 352.52 265.696 352.92 263.904 353.72C262.144 354.552 260.656 355.752 259.44 357.32L262.512 360.392C263.248 359.272 264.256 358.376 265.536 357.704C266.816 357.064 268.24 356.744 269.808 356.744C271.28 356.744 272.544 357.016 273.6 357.56C274.688 358.136 275.536 358.936 276.144 359.96C276.784 360.984 277.104 362.168 277.104 363.512C277.104 364.888 276.784 366.072 276.144 367.064C275.536 368.088 274.672 368.872 273.552 369.416C272.432 369.96 271.104 370.232 269.568 370.232C268.992 370.232 268.416 370.184 267.84 370.088C267.264 370.024 266.704 369.912 266.16 369.752L268.08 372.344C268.688 372.632 269.344 372.856 270.048 373.016C270.752 373.176 271.456 373.256 272.16 373.256C273.952 373.256 275.552 372.84 276.96 372.008C278.4 371.176 279.536 370.008 280.368 368.504C281.232 367 281.664 365.256 281.664 363.272C281.664 361.16 281.152 359.288 280.128 357.656C279.136 356.056 277.76 354.792 276 353.864C274.24 352.968 272.192 352.52 269.856 352.52ZM266.16 369.752V372.488L275.904 383.576L281.28 383.624L271.248 372.248L266.16 369.752ZM261.024 382.28V386.312H281.28V383.624L277.344 382.28H261.024Z" fill="#191715"/>
<path d="M285.077 309.963C281.298 308.566 277.636 308.984 274.049 310.659C273.712 310.816 273.406 311.062 272.86 311.088C274.207 307.531 275.03 303.891 277.799 301H264.273C265.434 302.62 266.565 304.094 267.216 305.841C267.867 307.589 268.478 309.293 269.131 311.095C268.566 311.041 268.272 310.812 267.96 310.666C265.203 309.4 262.354 308.793 259.307 309.316C254.955 310.062 251.778 312.682 251.11 316.829C250.815 318.646 251.138 320.386 251.78 322.083C253.068 325.517 255.304 328.266 257.966 330.722C262.04 334.5 265.674 338.646 268.851 343.137L269.018 343.384C269.622 344.243 270.95 346 270.95 346L272.134 344.361C273.892 341.622 276.068 339.049 278.184 336.615C280.253 334.236 282.556 332.023 284.886 329.861C287.604 327.341 289.656 324.343 290.643 320.72C291.93 316.004 289.662 311.656 285.077 309.963Z" fill="#191715"/>
</svg>
