<svg class="card-svg" width="300" height="400" viewBox="0 0 300 400" fill="none" xmlns="http://www.w3.org/2000/svg">
<rect width="300" height="400" rx="20" fill="white"/>
<path d="M163.337 55.8421C159.085 57.4253 154.965 56.9514 150.931 55.0537C150.551 54.8752 150.207 54.5968 149.593 54.567C151.108 58.5983 152.034 62.7231 155.149 66H139.932C141.238 64.1639 142.51 62.4936 143.243 60.513C143.975 58.5324 144.663 56.6007 145.397 54.5585C144.762 54.6202 144.431 54.8794 144.08 55.0452C140.978 56.4796 137.773 57.1681 134.346 56.5752C129.45 55.7294 125.875 52.7607 125.124 48.06C124.792 46.0008 125.155 44.0287 125.877 42.1055C127.327 38.2145 129.842 35.0991 132.837 32.3152C137.42 28.0332 141.508 23.3346 145.083 18.245L145.271 17.9645C145.95 16.9912 147.444 15 147.444 15L148.776 16.8573C150.753 19.9621 153.201 22.8777 155.582 25.6361C157.909 28.3328 160.501 30.8404 163.122 33.2906C166.18 36.1468 168.488 39.5448 169.598 43.6504C171.046 48.995 168.495 53.9231 163.337 55.8421Z" fill="#191715"/>
<path d="M164.337 341.158C160.085 339.575 155.965 340.049 151.931 341.946C151.551 342.125 151.207 342.403 150.593 342.433C152.108 338.402 153.034 334.277 156.149 331H140.932C142.238 332.836 143.51 334.506 144.243 336.487C144.975 338.468 145.663 340.399 146.397 342.441C145.762 342.38 145.431 342.121 145.08 341.955C141.978 340.52 138.773 339.832 135.346 340.425C130.45 341.271 126.875 344.239 126.124 348.94C125.792 350.999 126.155 352.971 126.877 354.894C128.327 358.786 130.842 361.901 133.837 364.685C138.42 368.967 142.508 373.665 146.083 378.755L146.271 379.035C146.95 380.009 148.444 382 148.444 382L149.776 380.143C151.753 377.038 154.201 374.122 156.582 371.364C158.909 368.667 161.501 366.16 164.122 363.709C167.18 360.853 169.488 357.455 170.598 353.35C172.046 348.005 169.495 343.077 164.337 341.158Z" fill="#191715"/>
<path d="M44.0773 86.0371C40.2975 87.4341 36.6359 87.0159 33.0493 85.3415C32.7117 85.184 32.4059 84.9383 31.8601 84.9121C33.2069 88.4691 34.0304 92.1086 36.7991 95H23.2725C24.4337 93.3799 25.5648 91.9061 26.2157 90.1585C26.8666 88.411 27.4781 86.7065 28.1309 84.9046C27.5663 84.959 27.2718 85.1877 26.9604 85.334C24.2029 86.5997 21.3536 87.2072 18.3072 86.684C13.9553 85.9377 10.7776 83.3183 10.1099 79.1706C9.81535 77.3536 10.138 75.6136 10.7795 73.9166C12.0682 70.4834 14.3042 67.7345 16.966 65.2781C21.0403 61.4999 24.6738 57.3541 27.8514 52.8632L28.0184 52.6157C28.6224 51.7569 29.9505 50 29.9505 50L31.1341 51.6388C32.8918 54.3783 35.0677 56.9509 37.1837 59.3848C39.2527 61.7642 41.5562 63.9768 43.886 66.1388C46.6041 68.6589 48.6562 71.6572 49.6429 75.2798C50.9297 79.9956 48.6619 84.3439 44.0773 86.0371Z" fill="#191715"/>
<path d="M18.584 39.264L30.872 26.304C32.12 25.024 33.096 23.92 33.8 22.992C34.504 22.032 35 21.152 35.288 20.352C35.608 19.552 35.768 18.72 35.768 17.856C35.768 16.16 35.224 14.832 34.136 13.872C33.048 12.912 31.64 12.432 29.912 12.432C28.216 12.432 26.728 12.848 25.448 13.68C24.168 14.48 23.032 15.728 22.04 17.424L18.872 14.784C20.184 12.608 21.768 10.976 23.624 9.888C25.48 8.768 27.624 8.208 30.056 8.208C32.104 8.208 33.88 8.608 35.384 9.408C36.92 10.208 38.104 11.328 38.936 12.768C39.768 14.208 40.184 15.888 40.184 17.808C40.184 19.184 40.008 20.416 39.656 21.504C39.336 22.592 38.744 23.712 37.88 24.864C37.048 25.984 35.88 27.328 34.376 28.896L24.44 39.12L18.584 39.264ZM18.584 42V39.264L22.424 37.968H40.952V42H18.584Z" fill="#191715"/>
<path d="M285.077 309.963C281.298 308.566 277.636 308.984 274.049 310.659C273.712 310.816 273.406 311.062 272.86 311.088C274.207 307.531 275.03 303.891 277.799 301H264.273C265.434 302.62 266.565 304.094 267.216 305.841C267.867 307.589 268.478 309.293 269.131 311.095C268.566 311.041 268.272 310.812 267.96 310.666C265.203 309.4 262.354 308.793 259.307 309.316C254.955 310.062 251.778 312.682 251.11 316.829C250.815 318.646 251.138 320.386 251.78 322.083C253.068 325.517 255.304 328.266 257.966 330.722C262.04 334.5 265.674 338.646 268.851 343.137L269.018 343.384C269.622 344.243 270.95 346 270.95 346L272.134 344.361C273.892 341.622 276.068 339.049 278.184 336.615C280.253 334.236 282.556 332.023 284.886 329.861C287.604 327.341 289.656 324.343 290.643 320.72C291.93 316.004 289.662 311.656 285.077 309.963Z" fill="#191715"/>
<path d="M259.584 355.736L271.872 368.696C273.12 369.976 274.096 371.08 274.8 372.008C275.504 372.968 276 373.848 276.288 374.648C276.608 375.448 276.768 376.28 276.768 377.144C276.768 378.84 276.224 380.168 275.136 381.128C274.048 382.088 272.64 382.568 270.912 382.568C269.216 382.568 267.728 382.152 266.448 381.32C265.168 380.52 264.032 379.272 263.04 377.576L259.872 380.216C261.184 382.392 262.768 384.024 264.624 385.112C266.48 386.232 268.624 386.792 271.056 386.792C273.104 386.792 274.88 386.392 276.384 385.592C277.92 384.792 279.104 383.672 279.936 382.232C280.768 380.792 281.184 379.112 281.184 377.192C281.184 375.816 281.008 374.584 280.656 373.496C280.336 372.408 279.744 371.288 278.88 370.136C278.048 369.016 276.88 367.672 275.376 366.104L265.44 355.88L259.584 355.736ZM259.584 353V355.736L263.424 357.032H281.952V353H259.584Z" fill="#191715"/>
</svg>
