<svg width="300" height="400" viewBox="0 0 300 400" fill="none" xmlns="http://www.w3.org/2000/svg">
<rect width="300" height="400" rx="20" fill="white"/>
<path d="M14.488 42L28.12 8.688H31.384L44.968 42H40.072L28.888 13.824H30.568L19.288 42H14.488ZM20.968 34.464V30.528H38.488V34.464H20.968Z" fill="#191715"/>
<path d="M255.488 353L269.12 386.312H272.384L285.968 353H281.072L269.888 381.176H271.568L260.288 353H255.488ZM261.968 360.536V364.472H279.488V360.536H261.968Z" fill="#191715"/>
<path d="M180.414 228.879C172.382 231.859 164.601 230.967 156.98 227.395C156.262 227.059 155.613 226.535 154.453 226.479C157.315 234.067 159.065 241.832 164.948 248H136.204C138.672 244.544 141.075 241.4 142.458 237.672C143.842 233.943 145.141 230.307 146.528 226.463C145.328 226.579 144.703 227.067 144.041 227.379C138.181 230.079 132.126 231.375 125.653 230.259C116.405 228.667 109.653 223.079 108.233 214.231C107.608 210.354 108.293 206.642 109.656 203.022C112.395 195.698 117.146 189.834 122.803 184.593C131.461 176.533 139.182 167.689 145.934 158.108L146.289 157.58C147.573 155.748 150.395 152 150.395 152L152.91 155.496C156.645 161.34 161.269 166.829 165.765 172.021C170.162 177.097 175.057 181.817 180.008 186.429C185.784 191.806 190.144 198.202 192.241 205.93C194.976 215.991 190.156 225.267 180.414 228.879Z" fill="#191715"/>
<path d="M44.0773 90.0371C40.2975 91.4341 36.6359 91.0159 33.0493 89.3415C32.7117 89.184 32.4059 88.9383 31.8601 88.9121C33.2069 92.4691 34.0304 96.1086 36.7991 99H23.2725C24.4337 97.3799 25.5648 95.9061 26.2157 94.1585C26.8666 92.411 27.4781 90.7065 28.1309 88.9046C27.5663 88.959 27.2718 89.1877 26.9604 89.334C24.2029 90.5997 21.3536 91.2072 18.3072 90.684C13.9553 89.9377 10.7776 87.3183 10.1099 83.1706C9.81535 81.3536 10.138 79.6136 10.7795 77.9166C12.0682 74.4834 14.3042 71.7345 16.966 69.2781C21.0403 65.4999 24.6738 61.3541 27.8514 56.8632L28.0184 56.6157C28.6224 55.757 29.9505 54 29.9505 54L31.1341 55.6388C32.8918 58.3783 35.0677 60.9509 37.1837 63.3848C39.2527 65.7642 41.5562 67.9768 43.886 70.1388C46.6041 72.6589 48.6562 75.6572 49.6429 79.2798C50.9297 83.9956 48.6619 88.3439 44.0773 90.0371Z" fill="#191715"/>
<path d="M285.077 304.963C281.298 303.566 277.636 303.984 274.049 305.659C273.712 305.816 273.406 306.062 272.86 306.088C274.207 302.531 275.03 298.891 277.799 296H264.273C265.434 297.62 266.565 299.094 267.216 300.841C267.867 302.589 268.478 304.293 269.131 306.095C268.566 306.041 268.272 305.812 267.96 305.666C265.203 304.4 262.354 303.793 259.307 304.316C254.955 305.062 251.778 307.682 251.11 311.829C250.815 313.646 251.138 315.386 251.78 317.083C253.068 320.517 255.304 323.266 257.966 325.722C262.04 329.5 265.674 333.646 268.851 338.137L269.018 338.384C269.622 339.243 270.95 341 270.95 341L272.134 339.361C273.892 336.622 276.068 334.049 278.184 331.615C280.253 329.236 282.556 327.023 284.886 324.861C287.604 322.341 289.656 319.343 290.643 315.72C291.93 311.004 289.662 306.656 285.077 304.963Z" fill="#191715"/>
</svg>
