<svg class="card-svg" width="301" height="400" viewBox="0 0 301 400" fill="none" xmlns="http://www.w3.org/2000/svg">
<rect width="300" height="400" rx="20" fill="white"/>
<path d="M107.337 55.8421C103.085 57.4253 98.9654 56.9514 94.9305 55.0537C94.5507 54.8752 94.2067 54.5968 93.5926 54.567C95.1078 58.5983 96.0342 62.7231 99.149 66H83.9316C85.2379 64.1639 86.5104 62.4936 87.2427 60.513C87.9749 58.5324 88.6629 56.6007 89.3973 54.5585C88.7621 54.6202 88.4308 54.8794 88.0805 55.0452C84.9783 56.4796 81.7728 57.1681 78.3456 56.5752C73.4497 55.7294 69.8749 52.7607 69.1236 48.06C68.7923 46.0008 69.1552 44.0287 69.877 42.1055C71.3267 38.2145 73.8422 35.0991 76.8368 32.3152C81.4203 28.0332 85.508 23.3346 89.0829 18.245L89.2707 17.9645C89.9502 16.9912 91.4443 15 91.4443 15L92.7759 16.8573C94.7532 19.9621 97.2012 22.8777 99.5816 25.6361C101.909 28.3328 104.501 30.8404 107.122 33.2906C110.18 36.1468 112.488 39.5448 113.598 43.6504C115.046 48.995 112.495 53.9231 107.337 55.8421Z" fill="#191715"/>
<path d="M226.337 54.8421C222.085 56.4253 217.965 55.9514 213.931 54.0537C213.551 53.8752 213.207 53.5968 212.593 53.567C214.108 57.5983 215.034 61.7231 218.149 65H202.932C204.238 63.1639 205.51 61.4936 206.243 59.513C206.975 57.5324 207.663 55.6007 208.397 53.5585C207.762 53.6202 207.431 53.8794 207.08 54.0452C203.978 55.4796 200.773 56.1681 197.346 55.5752C192.45 54.7294 188.875 51.7607 188.124 47.06C187.792 45.0008 188.155 43.0287 188.877 41.1055C190.327 37.2145 192.842 34.0991 195.837 31.3152C200.42 27.0332 204.508 22.3346 208.083 17.245L208.271 16.9645C208.95 15.9912 210.444 14 210.444 14L211.776 15.8573C213.753 18.9621 216.201 21.8777 218.582 24.6361C220.909 27.3328 223.501 29.8404 226.122 32.2906C229.18 35.1468 231.488 38.5448 232.598 42.6504C234.046 47.995 231.495 52.9231 226.337 54.8421Z" fill="#191715"/>
<path d="M105.337 341.158C101.085 339.575 96.9654 340.049 92.9305 341.946C92.5507 342.125 92.2067 342.403 91.5926 342.433C93.1078 338.402 94.0342 334.277 97.149 331H81.9316C83.2379 332.836 84.5104 334.506 85.2427 336.487C85.9749 338.468 86.6629 340.399 87.3973 342.441C86.7621 342.38 86.4308 342.121 86.0805 341.955C82.9783 340.52 79.7728 339.832 76.3456 340.425C71.4497 341.271 67.8749 344.239 67.1236 348.94C66.7923 350.999 67.1552 352.971 67.877 354.894C69.3267 358.786 71.8422 361.901 74.8368 364.685C79.4203 368.967 83.508 373.665 87.0829 378.755L87.2707 379.035C87.9502 380.009 89.4443 382 89.4443 382L90.7759 380.143C92.7532 377.038 95.2012 374.122 97.5816 371.364C99.9093 368.667 102.501 366.16 105.122 363.709C108.18 360.853 110.488 357.455 111.598 353.35C113.046 348.005 110.495 343.077 105.337 341.158Z" fill="#191715"/>
<path d="M226.337 341.158C222.085 339.575 217.965 340.049 213.931 341.946C213.551 342.125 213.207 342.403 212.593 342.433C214.108 338.402 215.034 334.277 218.149 331H202.932C204.238 332.836 205.51 334.506 206.243 336.487C206.975 338.468 207.663 340.399 208.397 342.441C207.762 342.38 207.431 342.121 207.08 341.955C203.978 340.52 200.773 339.832 197.346 340.425C192.45 341.271 188.875 344.239 188.124 348.94C187.792 350.999 188.155 352.971 188.877 354.894C190.327 358.786 192.842 361.901 195.837 364.685C200.42 368.967 204.508 373.665 208.083 378.755L208.271 379.035C208.95 380.009 210.444 382 210.444 382L211.776 380.143C213.753 377.038 216.201 374.122 218.582 371.364C220.909 368.667 223.501 366.16 226.122 363.709C229.18 360.853 231.488 357.455 232.598 353.35C234.046 348.005 231.495 343.077 226.337 341.158Z" fill="#191715"/>
<path d="M45.0773 86.0371C41.2975 87.4341 37.6359 87.0159 34.0493 85.3415C33.7117 85.184 33.4059 84.9383 32.8601 84.9121C34.2069 88.4691 35.0304 92.1086 37.7991 95H24.2725C25.4337 93.3799 26.5648 91.9061 27.2157 90.1585C27.8666 88.411 28.4781 86.7065 29.1309 84.9046C28.5663 84.959 28.2718 85.1877 27.9604 85.334C25.2029 86.5997 22.3536 87.2072 19.3072 86.684C14.9553 85.9377 11.7776 83.3183 11.1099 79.1706C10.8153 77.3536 11.138 75.6136 11.7795 73.9166C13.0682 70.4834 15.3042 67.7345 17.966 65.2781C22.0403 61.4999 25.6738 57.3541 28.8514 52.8632L29.0184 52.6157C29.6224 51.7569 30.9505 50 30.9505 50L32.1341 51.6388C33.8918 54.3783 36.0677 56.9509 38.1837 59.3848C40.2527 61.7642 42.5562 63.9768 44.886 66.1388C47.6041 68.6589 49.6562 71.6572 50.6429 75.2798C51.9297 79.9956 49.6619 84.3439 45.0773 86.0371Z" fill="#191715"/>
<path d="M19.584 30.528L31.728 8.688H36.816L24.432 30.528H19.584ZM19.584 33.312V30.528L21.504 29.28H45.12V33.312H19.584ZM35.856 42V19.968H40.32V42H35.856Z" fill="#191715"/>
<path d="M286.077 310.963C282.298 309.566 278.636 309.984 275.049 311.659C274.712 311.816 274.406 312.062 273.86 312.088C275.207 308.531 276.03 304.891 278.799 302H265.273C266.434 303.62 267.565 305.094 268.216 306.841C268.867 308.589 269.478 310.293 270.131 312.095C269.566 312.041 269.272 311.812 268.96 311.666C266.203 310.4 263.354 309.793 260.307 310.316C255.955 311.062 252.778 313.682 252.11 317.829C251.815 319.646 252.138 321.386 252.78 323.083C254.068 326.517 256.304 329.266 258.966 331.722C263.04 335.5 266.674 339.646 269.851 344.137L270.018 344.384C270.622 345.243 271.95 347 271.95 347L273.134 345.361C274.892 342.622 277.068 340.049 279.184 337.615C281.253 335.236 283.556 333.023 285.886 330.861C288.604 328.341 290.656 325.343 291.643 321.72C292.93 317.004 290.662 312.656 286.077 310.963Z" fill="#191715"/>
<path d="M260.584 364.472L272.728 386.312H277.816L265.432 364.472H260.584ZM260.584 361.688V364.472L262.504 365.72H286.12V361.688H260.584ZM276.856 353V375.032H281.32V353H276.856Z" fill="#191715"/>
</svg>
